PathFileType	4	(X/Y/Z)	Formatted/subject19/trials/walk2/markers.trc
DataRate	CameraRate	NumFrames	NumMarkers	Units	OrigDataRate	OrigDataStartFrame	OrigNumFrames
200.00000000000426	200.00000000000426	4	64	m	200.00000000000426	159	213
Frame#	Time	CLAV			C7			RACR			RASH			RPSH			RLEL			RMEL			RUA1			RUA2			RUA3			RFAsuperior			RFAradius			RFAulna			RASI			RPSI			RCAL			RTOE			RMT5			RTH1			RTH2			RTH3			RTB1			RTB2			RTB3			RLFC			RMFC			RLMAL			RMMAL			RHJC			RKJC			REJC			RAJC			RSJC			LACR			LASH			LPSH			LLEL			LMEL			LUA1			LUA2			LUA3			LFAsuperior			LFAradius			LFAulna			LASI			LPSI			LCAL			LTOE			LMT5			LTH1			LTH2			LTH3			LTB1			LTB2			LTB3			LLFC			LMFC			LLMAL			LMMAL			LHJC			LKJC			LEJC			LAJC			LSJC			
		X1	Y1	Z1	X2	Y2	Z2	X3	Y3	Z3	X4	Y4	Z4	X5	Y5	Z5	X6	Y6	Z6	X7	Y7	Z7	X8	Y8	Z8	X9	Y9	Z9	X10	Y10	Z10	X11	Y11	Z11	X12	Y12	Z12	X13	Y13	Z13	X14	Y14	Z14	X15	Y15	Z15	X16	Y16	Z16	X17	Y17	Z17	X18	Y18	Z18	X19	Y19	Z19	X20	Y20	Z20	X21	Y21	Z21	X22	Y22	Z22	X23	Y23	Z23	X24	Y24	Z24	X25	Y25	Z25	X26	Y26	Z26	X27	Y27	Z27	X28	Y28	Z28	X29	Y29	Z29	X30	Y30	Z30	X31	Y31	Z31	X32	Y32	Z32	X33	Y33	Z33	X34	Y34	Z34	X35	Y35	Z35	X36	Y36	Z36	X37	Y37	Z37	X38	Y38	Z38	X39	Y39	Z39	X40	Y40	Z40	X41	Y41	Z41	X42	Y42	Z42	X43	Y43	Z43	X44	Y44	Z44	X45	Y45	Z45	X46	Y46	Z46	X47	Y47	Z47	X48	Y48	Z48	X49	Y49	Z49	X50	Y50	Z50	X51	Y51	Z51	X52	Y52	Z52	X53	Y53	Z53	X54	Y54	Z54	X55	Y55	Z55	X56	Y56	Z56	X57	Y57	Z57	X58	Y58	Z58	X59	Y59	Z59	X60	Y60	Z60	X61	Y61	Z61	X62	Y62	Z62	X63	Y63	Z63	X64	Y64	Z64	

160	3.515	1.982383659159507	1.419316470942122	-0.5025539641541011	1.869693836009529	1.496016172196783	-0.5406377974915177	1.900940068996108	1.455547057011598	-0.3449837319633857	1.961047849556049	1.41738252732584	-0.3219175786686607	1.866312217608078	1.433681519322935	-0.3266515447962369	1.841647050168617	1.144594096464056	-0.2791403797054314	1.820478625155878	1.143054835020201	-0.3395956823415444	1.892664707215335	1.362475599971119	-0.2988690196708098	1.918299183916265	1.274790896210095	-0.3171988405216408	1.840196330533887	1.252885634910031	-0.2955992538780577	1.90151452801557	1.078935604551341	-0.324362332112098	1.96449077316373	0.8962512797777621	-0.2846584034602727	1.895023114449452	0.8882817979261797	-0.2836691497685755	1.95709857163957	0.9882521973194185	-0.3820252892166331	1.795891955888983	1.010671974243208	-0.4728106187660268	1.65721484691326	0.2757240999396113	-0.41892574694693	1.790523017274901	0.1126311475568602	-0.4340603498054478	1.754420042461578	0.1012718846975563	-0.3300725826026083	1.914832097129106	0.8364399180152384	-0.3283536703523628	2.028000592908421	0.7211084232982788	-0.3349798414183917	1.999854015584018	0.6132213989666142	-0.3402027244098315	1.988975972724679	0.3853732241452774	-0.3864262155894984	1.910159989986015	0.3865602084697629	-0.3281694228636028	1.84214110699557	0.280817866345775	-0.3916645774329504	2.039881365282913	0.5246712117466676	-0.3359318989796166	2.047394808564551	0.5146317743060926	-0.4484957953672701	1.715531864670186	0.2208589763100449	-0.3498593316840133	1.721658623087365	0.2188886033671077	-0.451061290965714	1.896353934908535	0.8808386273804969	-0.4342586494059468	2.050746592385309	0.5122166330079956	-0.3942210959612176	1.836275312017163	1.137514700377217	-0.3098816838252313	1.700981077325407	0.2210233271051225	-0.4083245758990707	1.916668942770022	1.425017790126879	-0.3241352051011238	1.911786176097134	1.45146507505285	-0.7167947325384852	1.978777487848493	1.405429265513451	-0.7178761799657598	1.876463005344684	1.423032176870314	-0.7229888633835422	1.864859143517832	1.133203182037976	-0.7619365084266635	1.840348422585802	1.137880918425957	-0.7018668030675984	1.896596425913508	1.354982002565114	-0.7577348063806711	1.844518561824093	1.29063878545263	-0.7304153335059599	1.915233750126801	1.241934493549285	-0.7555142506140468	1.915222998946534	1.082453418720599	-0.708053984922685	2.010937813859841	0.9025098911796983	-0.7267415058775805	1.9490205782771	0.8831352204708203	-0.7503714981233621	1.981924514605175	0.9926378521144686	-0.6160559905578138	1.805657132687159	1.014699402999119	-0.5697359061258078	1.84454773485105	0.05565725661255926	-0.5656951242041338	2.050331305893411	0.05042061161540098	-0.5308822825125608	2.043749966502587	0.01485046836432892	-0.6376457764798007	1.934711250783729	0.8151879188112012	-0.6895234851671099	2.022609708890693	0.7283629213069294	-0.6661952966741451	1.966129898365157	0.5954360407614334	-0.6529916160642076	2.029291446467474	0.3602218525637596	-0.5910873487786836	1.974772460253392	0.2712178110460934	-0.6397890291865421	1.980258938579129	0.1727973396028148	-0.5741186273869698	2.004129708650908	0.4986167571450305	-0.6305740375701563	1.99411718354979	0.4998480486464873	-0.5177639929536511	1.93122812633119	0.06030537806440822	-0.6257328368274705	1.92541696942276	0.06234132871647541	-0.5245135626697307	1.913730903662265	0.8819678607697184	-0.5859255383242306	2.002795448193234	0.4975206081264192	-0.5714454076495392	1.856141346138821	1.124839030676388	-0.7313273741024757	1.913091089457841	0.05111765016794551	-0.56901801729837	1.934398581062466	1.41306452831449	-0.720093806398223	
161	3.52	1.988147341855678	1.42029499823665	-0.5024251561511277	1.875589794891998	1.497062819312386	-0.5407620710583344	1.906304166375112	1.456470252123499	-0.3450493719536957	1.96633527790925	1.418267832182501	-0.3218466825315504	1.871619163777183	1.434608689664222	-0.3268207790810139	1.845271467904512	1.145907568662606	-0.2794575373300175	1.824453062390266	1.144436436467709	-0.3400359569367228	1.897498589541377	1.363517749993881	-0.2990153204972458	1.922800114908034	1.275693929082562	-0.3171405872944403	1.844461984589661	1.254194617960832	-0.2959898123256692	1.904408417544787	1.079240506550777	-0.3243529685011053	1.964521710078507	0.8957425900647064	-0.2839688301872155	1.894940307283296	0.8888064667469402	-0.2832168664487594	1.962951384858949	0.9897060162436196	-0.3823758906129844	1.801630063480032	1.011718996042394	-0.473056954840312	1.672248938902217	0.2707203290239258	-0.419195097391468	1.809847992744617	0.111186422556952	-0.4338534968552073	1.773892969101015	0.09904413606277784	-0.3299029580187417	1.921160220635716	0.837892184393079	-0.3283964569073488	2.03575818201411	0.7239734762642076	-0.3348928743633265	2.008957751345347	0.6157482071504736	-0.3401981907714849	2.002004921811992	0.3873946873385753	-0.3863711146939589	1.923129454747016	0.387008829268731	-0.3281840562153949	1.857330357053574	0.279873565883288	-0.3916833483136566	2.050072086461733	0.5276988292762976	-0.3358990240651714	2.057879938477698	0.5177966697726799	-0.4484550438424437	1.731929006191041	0.2173746450008106	-0.3499576560002697	1.738184310329074	0.2154779662204849	-0.4511531592622068	1.902294249934552	0.882099565714784	-0.4343130988805092	2.061191367635079	0.5154635419187976	-0.3941783614892722	1.840045921863006	1.138835829585562	-0.3102257900217527	1.717429746971137	0.2172135775271537	-0.4084357095246994	1.921965514244083	1.425922706869813	-0.3241767980601465	1.918127360205945	1.452593837732839	-0.716832785063702	1.98510230318988	1.406530934082302	-0.7177639446813501	1.882808899927248	1.42417906016256	-0.7231359689547708	1.872186399271742	1.134198528487337	-0.7627258296233903	1.847453905598585	1.138683822954886	-0.7027323962286027	1.903236981829495	1.356063553364527	-0.7579796008654769	1.851260045773864	1.291509536559658	-0.7309669344425266	1.92220887492973	1.243068736271818	-0.7559159635895256	1.923096320375187	1.084235946707093	-0.7088399023018785	2.021258962234779	0.9055848882411174	-0.7272278709042846	1.95962204997625	0.8853360807536435	-0.750857837120752	1.987549235173465	0.9936042654888162	-0.6164393008143327	1.811297953233648	1.015543897262394	-0.5700001971443986	1.844692785849267	0.05592764646451586	-0.5657792231649218	2.050478845086221	0.05049289289996895	-0.5310114825734882	2.043840261252218	0.01493383531266497	-0.637775125220944	1.939913425164838	0.8159220886051917	-0.689577633761104	2.026748587810816	0.7280695882066274	-0.6661145519190106	1.968695387204381	0.5958081942741783	-0.6530527249181317	2.030170138632424	0.3601510977088036	-0.5911461084822541	1.975442099496272	0.2712825893327841	-0.6398608176589725	1.980689405533863	0.1728423227754297	-0.5742005403558863	2.005520274718073	0.4985454160759756	-0.6305941692198103	1.995316739113673	0.4998630741125963	-0.5178022167475339	1.931393665376847	0.06047317450915324	-0.6258299224643566	1.925580765665559	0.06251222309341492	-0.524610810738807	1.919525584404206	0.8829145758690743	-0.5859986165679593	2.004000570879196	0.4975106010569408	-0.5714912714570678	1.863388113087668	1.125747786678281	-0.7321635449195759	1.913231047232896	0.0513227227644551	-0.5691172630337843	1.940732539524713	1.414185808769614	-0.7200940602099464	
162	3.525	1.993908899270448	1.421242787426563	-0.502292884446662	1.881480883864736	1.498077180183359	-0.5408757331935721	1.911677056990792	1.457364112348178	-0.345107434040213	1.971633119960076	1.419124664004491	-0.3217720715749184	1.876936647057487	1.435506478449714	-0.3269799225032184	1.848863981732093	1.147220069803939	-0.279735431550713	1.828406233154811	1.145806074022297	-0.3404379545560601	1.902331556921088	1.364541686443166	-0.2991494337305969	1.927288864623732	1.276573529949077	-0.3170506134984092	1.848713884882564	1.255496100842684	-0.2963587585016457	1.907276812458445	1.079574955734869	-0.3243048309911575	1.964590399994529	0.8953360300315814	-0.2832299863685552	1.894913867945847	0.88940665897525	-0.2827100713390351	1.96882245202139	0.9911497112258224	-0.382713256829376	1.807376287171649	1.012738924267079	-0.473273939004542	1.687469560202693	0.2654234572128892	-0.4194774786296893	1.829318159445745	0.1096146655026769	-0.4336912369069082	1.793544209323732	0.0966661149915188	-0.3297755359602377	1.927467246667552	0.8392938416687448	-0.328412072528474	2.043406424300394	0.7267339447538601	-0.3347952496314597	2.017888351186777	0.6182044798078206	-0.340208337849514	2.014933055866392	0.3893553148346317	-0.3863485759145057	1.936033777422492	0.3873231879440011	-0.3282280435108168	1.872577305786735	0.2787858042296644	-0.3917304730620304	2.060027941984658	0.5306417507247666	-0.3358969931201533	2.068129486766727	0.5209019885233157	-0.4484464262970615	1.74849478535284	0.2136595287297919	-0.3500802189098592	1.754875517498218	0.2118482914224216	-0.4512694563681831	1.908250345273606	0.8833422459371683	-0.4343318593622442	2.071395163715375	0.518647616449017	-0.3941684931574777	1.843788795367436	1.140149852432737	-0.3105291924187219	1.734052252558305	0.2131632310177436	-0.4085704244123439	1.927272557228858	1.426798724981356	-0.3242116893422806	1.924451844775357	1.453688314967795	-0.7168614038580118	1.991410430930347	1.407598915667068	-0.7176463566442307	1.88913824019555	1.425291275267909	-0.7232708356467947	1.879455362042155	1.135177933536211	-0.7635217636946948	1.854502761006514	1.139470331390132	-0.7036054121496619	1.909852513012545	1.357120823227028	-0.7582187874616587	1.857967935110676	1.292363446010392	-0.731517106117231	1.929141347537768	1.244176816083123	-0.7563182271851991	1.930908439482428	1.086022938670589	-0.7096363779671969	2.031517228137682	0.908705483571623	-0.7277088459707535	1.970172012950977	0.8875763564285316	-0.7513271232298983	1.993166365179047	0.9945276181974876	-0.6168113008601216	1.816936124279988	1.016347628749807	-0.5702361840098948	1.844834880063903	0.05619422427852582	-0.5658629543972665	2.050621153680205	0.05056070013373103	-0.53112813749489	2.043931825741374	0.01501613676222641	-0.6378934393004286	1.945115646771439	0.8166252228814062	-0.6895987662123334	2.030862134743782	0.7277465588983885	-0.6659969358476243	1.971226581798372	0.5961756430697118	-0.6530912517082721	2.031005828817301	0.3600909435556863	-0.5911885689029737	1.976082336592633	0.2713525382629517	-0.6399204718700051	1.98110100590226	0.1728920292275846	-0.5742726734689143	2.006857241239322	0.4984780136768187	-0.6305937761588806	1.996451444481202	0.4998812064626353	-0.517821335607678	1.931557078833288	0.06064117436996008	-0.6259218114185042	1.925738670021263	0.06267998479341441	-0.5247030114273707	1.925319342042126	0.8838217306463968	-0.5860371620019222	2.005144210215697	0.4975065370579557	-0.5715182003083452	1.870575717799716	1.126639872824843	-0.7330073153032538	1.913368193735316	0.05152423908131532	-0.5692121724274251	1.947049868199129	1.415272976643933	-0.7200859744115928	
163	3.53	1.999670395611454	1.422154264184523	-0.5021581392451588	1.887369175396409	1.499053923068652	-0.540979488751791	1.917061422674869	1.458223436669767	-0.3451585717143224	1.976944070472963	1.419947695423629	-0.3216945532489983	1.882267336019582	1.436369789982579	-0.327129468109507	1.852427316302431	1.148526800171981	-0.2799772173122465	1.83234155229296	1.147158843043969	-0.340804891421884	1.90716619385054	1.365542257665919	-0.2992727253228977	1.93176808213984	1.277424877434495	-0.3169303128014904	1.852954891214565	1.256784992608881	-0.2967086805026761	1.910124787376701	1.079934015629	-0.3242200301565302	1.964704084881655	0.8950238757351295	-0.2824430942992421	1.894949809076748	0.8900738595320261	-0.2821511737372883	1.974710223931011	0.9925767913489764	-0.3830365086417477	1.813130423476918	1.013727940501709	-0.4734621266667075	1.702877656068899	0.2598542113811335	-0.4197718409804968	1.848924323101043	0.107935184191313	-0.4335709653105463	1.813365725754424	0.09416012025219449	-0.3296876310402007	1.933752276047316	0.8406384226022282	-0.3283999431230403	2.050945490210772	0.7293793508327646	-0.3346878487070057	2.026644006349545	0.6205776924395388	-0.340233599692066	2.027752432963274	0.391249862670957	-0.3863586926908565	1.948869502179438	0.3875029502267866	-0.3283012569599866	1.887875667162541	0.2775635911280422	-0.3918050790954186	2.06974708767603	0.5334849855461986	-0.3359267311528961	2.078139348216062	0.523932209352905	-0.4484708884160302	1.765226288634214	0.2097335584215778	-0.3502254696899808	1.771728533882869	0.2080187153757483	-0.4514086512012687	1.914219242339095	0.8845612213091751	-0.4343140630910266	2.081354199926571	0.5217531311044747	-0.394192433289315	1.847506981486332	1.141451955110087	-0.310795037990481	1.750846263836083	0.2088927602910722	-0.4087271376146817	1.932592754218277	1.427640625619769	-0.3242405391154036	1.930760973131834	1.454742879621758	-0.7168814911106489	1.997703123210996	1.408627413453777	-0.7175245008636706	1.895452250001345	1.426363275577443	-0.7233942089130201	1.886668508521289	1.136135132610761	-0.764325468952842	1.861497629601984	1.140234056975636	-0.7044869208945129	1.916444376100028	1.358147900970579	-0.7584532442042239	1.864643957880755	1.293194294188057	-0.7320666424354856	1.936033160018094	1.245252803343754	-0.7567222061141391	1.938661802329734	1.087808681181213	-0.7104450385769655	2.041714485709734	0.9118665781771017	-0.7281860412505244	1.980672510738243	0.8898508630539137	-0.7517801939163086	1.998776693251376	0.9953998135681498	-0.6171705860041848	1.822572451036752	1.017106121691193	-0.5704442188150523	1.844973399255436	0.05645392301614077	-0.5659448164942262	2.050757884775919	0.05062364037100803	-0.5312318818478458	2.04402416275804	0.01509651727772971	-0.6380001977270096	1.950317328806845	0.8172911790150176	-0.6895857938501012	2.034951417552267	0.7273899714328573	-0.665842007187835	1.973727762080522	0.5965338110489535	-0.6531065821668401	2.031803184297689	0.3600374097932876	-0.5912141921115556	1.976696323473725	0.2714244145019254	-0.6399672832387888	1.981495243474525	0.1729431905244737	-0.5743341269320701	2.008146962391816	0.4984112066129222	-0.6305726025825631	1.997528182875259	0.4998992310259991	-0.5178211049917778	1.931717968492024	0.06080673047473628	-0.6260073869361479	1.925890294750506	0.06284228303147488	-0.5247890543810079	1.931110681376863	0.884682814539528	-0.5860399471964954	2.006233297422281	0.497505024676026	-0.5715259266076003	1.877706782989685	1.127508969908922	-0.7338598339560984	1.913501953207675	0.05171996962778014	-0.5693016132518601	1.95335180695631	1.416320343649917	-0.720070486730076	
